{"asset":{"generator":"glTF-Transform v4.0.2","version":"2.0","extras":{"author":"thomazgobatto (https://sketchfab.com/thomazgobatto)","license":"CC-BY-4.0 (http://creativecommons.org/licenses/by/4.0/)","source":"https://sketchfab.com/3d-models/cat-in-the-bag-b540b1f402244330b604350ce0f06204","title":"Cat in the bag"}},"accessors":[{"type":"SCALAR","componentType":5123,"count":260790,"normalized":false,"byteOffset":0,"bufferView":0},{"type":"VEC3","componentType":5120,"count":65533,"normalized":true,"byteOffset":0,"bufferView":1},{"type":"SCALAR","componentType":5123,"count":234366,"normalized":false,"byteOffset":521580,"bufferView":0},{"type":"VEC3","componentType":5120,"count":65532,"normalized":true,"byteOffset":0,"bufferView":2},{"type":"SCALAR","componentType":5123,"count":201669,"normalized":false,"byteOffset":990312,"bufferView":0},{"type":"VEC3","componentType":5120,"count":65532,"normalized":true,"byteOffset":0,"bufferView":3},{"type":"SCALAR","componentType":5123,"count":299322,"normalized":false,"byteOffset":1393650,"bufferView":0},{"type":"VEC3","componentType":5120,"count":65532,"normalized":true,"byteOffset":0,"bufferView":4},{"type":"SCALAR","componentType":5123,"count":247587,"normalized":false,"byteOffset":1992294,"bufferView":0},{"type":"VEC3","componentType":5120,"count":65532,"normalized":true,"byteOffset":0,"bufferView":5},{"type":"SCALAR","componentType":5123,"count":266634,"normalized":false,"byteOffset":2487468,"bufferView":0},{"type":"VEC3","componentType":5120,"count":65532,"normalized":true,"byteOffset":0,"bufferView":6},{"type":"SCALAR","componentType":5123,"count":251253,"normalized":false,"byteOffset":3020736,"bufferView":0},{"type":"VEC3","componentType":5120,"count":65532,"normalized":true,"byteOffset":0,"bufferView":7},{"type":"SCALAR","componentType":5123,"count":290784,"normalized":false,"byteOffset":3523242,"bufferView":0},{"type":"VEC3","componentType":5120,"count":65532,"normalized":true,"byteOffset":0,"bufferView":8},{"type":"SCALAR","componentType":5123,"count":272754,"normalized":false,"byteOffset":4104810,"bufferView":0},{"type":"VEC3","componentType":5120,"count":65532,"normalized":true,"byteOffset":0,"bufferView":9},{"type":"SCALAR","componentType":5123,"count":244188,"normalized":false,"byteOffset":4650318,"bufferView":0},{"type":"VEC3","componentType":5120,"count":65532,"normalized":true,"byteOffset":0,"bufferView":10},{"type":"SCALAR","componentType":5123,"count":249675,"normalized":false,"byteOffset":5138694,"bufferView":0},{"type":"VEC3","componentType":5120,"count":65532,"normalized":true,"byteOffset":0,"bufferView":11},{"type":"SCALAR","componentType":5123,"count":180804,"normalized":false,"byteOffset":5638044,"bufferView":0},{"type":"VEC3","componentType":5120,"count":58772,"normalized":true,"byteOffset":0,"bufferView":12},{"type":"VEC3","componentType":5122,"count":65533,"max":[24118,32767,18714],"min":[-24118,-32767,-18714],"normalized":true,"byteOffset":0,"bufferView":13},{"type":"VEC2","componentType":5123,"count":65533,"normalized":true,"byteOffset":0,"bufferView":14},{"type":"VEC3","componentType":5122,"count":65532,"max":[32767,22506,14613],"min":[-32767,-22506,-14613],"normalized":true,"byteOffset":0,"bufferView":15},{"type":"VEC2","componentType":5123,"count":65532,"normalized":true,"byteOffset":0,"bufferView":16},{"type":"VEC3","componentType":5122,"count":65532,"max":[32767,25535,11065],"min":[-32767,-25535,-11065],"normalized":true,"byteOffset":0,"bufferView":17},{"type":"VEC2","componentType":5123,"count":65532,"normalized":true,"byteOffset":0,"bufferView":18},{"type":"VEC3","componentType":5122,"count":65532,"max":[32767,14045,7964],"min":[-32767,-14045,-7964],"normalized":true,"byteOffset":0,"bufferView":19},{"type":"VEC2","componentType":5123,"count":65532,"normalized":true,"byteOffset":0,"bufferView":20},{"type":"VEC3","componentType":5122,"count":65532,"max":[27695,32767,8673],"min":[-27695,-32767,-8673],"normalized":true,"byteOffset":0,"bufferView":21},{"type":"VEC2","componentType":5123,"count":65532,"normalized":true,"byteOffset":0,"bufferView":22},{"type":"VEC3","componentType":5122,"count":65532,"max":[32767,14349,8305],"min":[-32767,-14349,-8305],"normalized":true,"byteOffset":0,"bufferView":23},{"type":"VEC2","componentType":5123,"count":65532,"normalized":true,"byteOffset":0,"bufferView":24},{"type":"VEC3","componentType":5122,"count":65532,"max":[32767,22394,12113],"min":[-32767,-22394,-12113],"normalized":true,"byteOffset":0,"bufferView":25},{"type":"VEC2","componentType":5123,"count":65532,"normalized":true,"byteOffset":0,"bufferView":26},{"type":"VEC3","componentType":5122,"count":65532,"max":[32767,32483,6876],"min":[-32767,-32483,-6876],"normalized":true,"byteOffset":0,"bufferView":27},{"type":"VEC2","componentType":5123,"count":65532,"normalized":true,"byteOffset":0,"bufferView":28},{"type":"VEC3","componentType":5122,"count":65532,"max":[9697,32767,8445],"min":[-9697,-32767,-8445],"normalized":true,"byteOffset":0,"bufferView":29},{"type":"VEC2","componentType":5123,"count":65532,"normalized":true,"byteOffset":0,"bufferView":30},{"type":"VEC3","componentType":5122,"count":65532,"max":[32619,32767,8349],"min":[-32619,-32767,-8349],"normalized":true,"byteOffset":0,"bufferView":31},{"type":"VEC2","componentType":5123,"count":65532,"normalized":true,"byteOffset":0,"bufferView":32},{"type":"VEC3","componentType":5122,"count":65532,"max":[32767,28395,8072],"min":[-32767,-28395,-8072],"normalized":true,"byteOffset":0,"bufferView":33},{"type":"VEC2","componentType":5123,"count":65532,"normalized":true,"byteOffset":0,"bufferView":34},{"type":"VEC3","componentType":5122,"count":58772,"max":[32767,20998,11473],"min":[-32767,-20998,-11473],"normalized":true,"byteOffset":0,"bufferView":35},{"type":"VEC2","componentType":5123,"count":58772,"normalized":true,"byteOffset":0,"bufferView":36}],"bufferViews":[{"buffer":1,"byteOffset":0,"byteLength":5999652,"target":34963,"extensions":{"EXT_meshopt_compression":{"buffer":0,"byteOffset":0,"byteLength":1124763,"mode":"TRIANGLES","byteStride":2,"count":2999826}}},{"buffer":1,"byteOffset":5999652,"byteLength":262132,"target":34962,"byteStride":4,"extensions":{"EXT_meshopt_compression":{"buffer":0,"byteOffset":1124764,"byteLength":134128,"mode":"ATTRIBUTES","filter":"OCTAHEDRAL","byteStride":4,"count":65533}}},{"buffer":1,"byteOffset":6261784,"byteLength":262128,"target":34962,"byteStride":4,"extensions":{"EXT_meshopt_compression":{"buffer":0,"byteOffset":1258892,"byteLength":134296,"mode":"ATTRIBUTES","filter":"OCTAHEDRAL","byteStride":4,"count":65532}}},{"buffer":1,"byteOffset":6523912,"byteLength":262128,"target":34962,"byteStride":4,"extensions":{"EXT_meshopt_compression":{"buffer":0,"byteOffset":1393188,"byteLength":133455,"mode":"ATTRIBUTES","filter":"OCTAHEDRAL","byteStride":4,"count":65532}}},{"buffer":1,"byteOffset":6786040,"byteLength":262128,"target":34962,"byteStride":4,"extensions":{"EXT_meshopt_compression":{"buffer":0,"byteOffset":1526644,"byteLength":127779,"mode":"ATTRIBUTES","filter":"OCTAHEDRAL","byteStride":4,"count":65532}}},{"buffer":1,"byteOffset":7048168,"byteLength":262128,"target":34962,"byteStride":4,"extensions":{"EXT_meshopt_compression":{"buffer":0,"byteOffset":1654424,"byteLength":133416,"mode":"ATTRIBUTES","filter":"OCTAHEDRAL","byteStride":4,"count":65532}}},{"buffer":1,"byteOffset":7310296,"byteLength":262128,"target":34962,"byteStride":4,"extensions":{"EXT_meshopt_compression":{"buffer":0,"byteOffset":1787840,"byteLength":133045,"mode":"ATTRIBUTES","filter":"OCTAHEDRAL","byteStride":4,"count":65532}}},{"buffer":1,"byteOffset":7572424,"byteLength":262128,"target":34962,"byteStride":4,"extensions":{"EXT_meshopt_compression":{"buffer":0,"byteOffset":1920888,"byteLength":133601,"mode":"ATTRIBUTES","filter":"OCTAHEDRAL","byteStride":4,"count":65532}}},{"buffer":1,"byteOffset":7834552,"byteLength":262128,"target":34962,"byteStride":4,"extensions":{"EXT_meshopt_compression":{"buffer":0,"byteOffset":2054492,"byteLength":133544,"mode":"ATTRIBUTES","filter":"OCTAHEDRAL","byteStride":4,"count":65532}}},{"buffer":1,"byteOffset":8096680,"byteLength":262128,"target":34962,"byteStride":4,"extensions":{"EXT_meshopt_compression":{"buffer":0,"byteOffset":2188036,"byteLength":132997,"mode":"ATTRIBUTES","filter":"OCTAHEDRAL","byteStride":4,"count":65532}}},{"buffer":1,"byteOffset":8358808,"byteLength":262128,"target":34962,"byteStride":4,"extensions":{"EXT_meshopt_compression":{"buffer":0,"byteOffset":2321036,"byteLength":131954,"mode":"ATTRIBUTES","filter":"OCTAHEDRAL","byteStride":4,"count":65532}}},{"buffer":1,"byteOffset":8620936,"byteLength":262128,"target":34962,"byteStride":4,"extensions":{"EXT_meshopt_compression":{"buffer":0,"byteOffset":2452992,"byteLength":133639,"mode":"ATTRIBUTES","filter":"OCTAHEDRAL","byteStride":4,"count":65532}}},{"buffer":1,"byteOffset":8883064,"byteLength":235088,"target":34962,"byteStride":4,"extensions":{"EXT_meshopt_compression":{"buffer":0,"byteOffset":2586632,"byteLength":119659,"mode":"ATTRIBUTES","filter":"OCTAHEDRAL","byteStride":4,"count":58772}}},{"buffer":1,"byteOffset":9118152,"byteLength":524264,"target":34962,"byteStride":8,"extensions":{"EXT_meshopt_compression":{"buffer":0,"byteOffset":2706292,"byteLength":272783,"mode":"ATTRIBUTES","byteStride":8,"count":65533}}},{"buffer":1,"byteOffset":9642416,"byteLength":262132,"target":34962,"byteStride":4,"extensions":{"EXT_meshopt_compression":{"buffer":0,"byteOffset":2979076,"byteLength":173860,"mode":"ATTRIBUTES","byteStride":4,"count":65533}}},{"buffer":1,"byteOffset":9904548,"byteLength":524256,"target":34962,"byteStride":8,"extensions":{"EXT_meshopt_compression":{"buffer":0,"byteOffset":3152936,"byteLength":268187,"mode":"ATTRIBUTES","byteStride":8,"count":65532}}},{"buffer":1,"byteOffset":10428804,"byteLength":262128,"target":34962,"byteStride":4,"extensions":{"EXT_meshopt_compression":{"buffer":0,"byteOffset":3421124,"byteLength":176436,"mode":"ATTRIBUTES","byteStride":4,"count":65532}}},{"buffer":1,"byteOffset":10690932,"byteLength":524256,"target":34962,"byteStride":8,"extensions":{"EXT_meshopt_compression":{"buffer":0,"byteOffset":3597560,"byteLength":264137,"mode":"ATTRIBUTES","byteStride":8,"count":65532}}},{"buffer":1,"byteOffset":11215188,"byteLength":262128,"target":34962,"byteStride":4,"extensions":{"EXT_meshopt_compression":{"buffer":0,"byteOffset":3861700,"byteLength":179180,"mode":"ATTRIBUTES","byteStride":4,"count":65532}}},{"buffer":1,"byteOffset":11477316,"byteLength":524256,"target":34962,"byteStride":8,"extensions":{"EXT_meshopt_compression":{"buffer":0,"byteOffset":4040880,"byteLength":252472,"mode":"ATTRIBUTES","byteStride":8,"count":65532}}},{"buffer":1,"byteOffset":12001572,"byteLength":262128,"target":34962,"byteStride":4,"extensions":{"EXT_meshopt_compression":{"buffer":0,"byteOffset":4293352,"byteLength":171355,"mode":"ATTRIBUTES","byteStride":4,"count":65532}}},{"buffer":1,"byteOffset":12263700,"byteLength":524256,"target":34962,"byteStride":8,"extensions":{"EXT_meshopt_compression":{"buffer":0,"byteOffset":4464708,"byteLength":257335,"mode":"ATTRIBUTES","byteStride":8,"count":65532}}},{"buffer":1,"byteOffset":12787956,"byteLength":262128,"target":34962,"byteStride":4,"extensions":{"EXT_meshopt_compression":{"buffer":0,"byteOffset":4722044,"byteLength":175095,"mode":"ATTRIBUTES","byteStride":4,"count":65532}}},{"buffer":1,"byteOffset":13050084,"byteLength":524256,"target":34962,"byteStride":8,"extensions":{"EXT_meshopt_compression":{"buffer":0,"byteOffset":4897140,"byteLength":252971,"mode":"ATTRIBUTES","byteStride":8,"count":65532}}},{"buffer":1,"byteOffset":13574340,"byteLength":262128,"target":34962,"byteStride":4,"extensions":{"EXT_meshopt_compression":{"buffer":0,"byteOffset":5150112,"byteLength":172496,"mode":"ATTRIBUTES","byteStride":4,"count":65532}}},{"buffer":1,"byteOffset":13836468,"byteLength":524256,"target":34962,"byteStride":8,"extensions":{"EXT_meshopt_compression":{"buffer":0,"byteOffset":5322608,"byteLength":260812,"mode":"ATTRIBUTES","byteStride":8,"count":65532}}},{"buffer":1,"byteOffset":14360724,"byteLength":262128,"target":34962,"byteStride":4,"extensions":{"EXT_meshopt_compression":{"buffer":0,"byteOffset":5583420,"byteLength":175045,"mode":"ATTRIBUTES","byteStride":4,"count":65532}}},{"buffer":1,"byteOffset":14622852,"byteLength":524256,"target":34962,"byteStride":8,"extensions":{"EXT_meshopt_compression":{"buffer":0,"byteOffset":5758468,"byteLength":249989,"mode":"ATTRIBUTES","byteStride":8,"count":65532}}},{"buffer":1,"byteOffset":15147108,"byteLength":262128,"target":34962,"byteStride":4,"extensions":{"EXT_meshopt_compression":{"buffer":0,"byteOffset":6008460,"byteLength":171829,"mode":"ATTRIBUTES","byteStride":4,"count":65532}}},{"buffer":1,"byteOffset":15409236,"byteLength":524256,"target":34962,"byteStride":8,"extensions":{"EXT_meshopt_compression":{"buffer":0,"byteOffset":6180292,"byteLength":254691,"mode":"ATTRIBUTES","byteStride":8,"count":65532}}},{"buffer":1,"byteOffset":15933492,"byteLength":262128,"target":34962,"byteStride":4,"extensions":{"EXT_meshopt_compression":{"buffer":0,"byteOffset":6434984,"byteLength":173303,"mode":"ATTRIBUTES","byteStride":4,"count":65532}}},{"buffer":1,"byteOffset":16195620,"byteLength":524256,"target":34962,"byteStride":8,"extensions":{"EXT_meshopt_compression":{"buffer":0,"byteOffset":6608288,"byteLength":254961,"mode":"ATTRIBUTES","byteStride":8,"count":65532}}},{"buffer":1,"byteOffset":16719876,"byteLength":262128,"target":34962,"byteStride":4,"extensions":{"EXT_meshopt_compression":{"buffer":0,"byteOffset":6863252,"byteLength":176582,"mode":"ATTRIBUTES","byteStride":4,"count":65532}}},{"buffer":1,"byteOffset":16982004,"byteLength":524256,"target":34962,"byteStride":8,"extensions":{"EXT_meshopt_compression":{"buffer":0,"byteOffset":7039836,"byteLength":253641,"mode":"ATTRIBUTES","byteStride":8,"count":65532}}},{"buffer":1,"byteOffset":17506260,"byteLength":262128,"target":34962,"byteStride":4,"extensions":{"EXT_meshopt_compression":{"buffer":0,"byteOffset":7293480,"byteLength":175703,"mode":"ATTRIBUTES","byteStride":4,"count":65532}}},{"buffer":1,"byteOffset":17768388,"byteLength":470176,"target":34962,"byteStride":8,"extensions":{"EXT_meshopt_compression":{"buffer":0,"byteOffset":7469184,"byteLength":237043,"mode":"ATTRIBUTES","byteStride":8,"count":58772}}},{"buffer":1,"byteOffset":18238564,"byteLength":235088,"target":34962,"byteStride":4,"extensions":{"EXT_meshopt_compression":{"buffer":0,"byteOffset":7706228,"byteLength":161201,"mode":"ATTRIBUTES","byteStride":4,"count":58772}}}],"samplers":[{"magFilter":9729,"minFilter":9987,"wrapS":10497,"wrapT":10497}],"textures":[{"source":0,"sampler":0}],"images":[{"mimeType":"image/jpeg","uri":"textures/tex_u1_v1_baseColor.jpeg"}],"buffers":[{"uri":"scene.bin","byteLength":7867432},{"byteLength":18473652,"extensions":{"EXT_meshopt_compression":{"fallback":true}}}],"materials":[{"name":"tex_u1_v1","doubleSided":true,"pbrMetallicRoughness":{"metallicFactor":0,"baseColorTexture":{"index":0}},"extensions":{"KHR_materials_unlit":{}}}],"meshes":[{"name":"model_tex_u1_v1_0","primitives":[{"attributes":{"NORMAL":1,"POSITION":24,"TEXCOORD_0":25,"TEXCOORD_1":25},"mode":4,"material":0,"indices":0}]},{"name":"model_tex_u1_v1_0","primitives":[{"attributes":{"NORMAL":3,"POSITION":26,"TEXCOORD_0":27,"TEXCOORD_1":27},"mode":4,"material":0,"indices":2}]},{"name":"model_tex_u1_v1_0","primitives":[{"attributes":{"NORMAL":5,"POSITION":28,"TEXCOORD_0":29,"TEXCOORD_1":29},"mode":4,"material":0,"indices":4}]},{"name":"model_tex_u1_v1_0","primitives":[{"attributes":{"NORMAL":7,"POSITION":30,"TEXCOORD_0":31,"TEXCOORD_1":31},"mode":4,"material":0,"indices":6}]},{"name":"model_tex_u1_v1_0","primitives":[{"attributes":{"NORMAL":9,"POSITION":32,"TEXCOORD_0":33,"TEXCOORD_1":33},"mode":4,"material":0,"indices":8}]},{"name":"model_tex_u1_v1_0","primitives":[{"attributes":{"NORMAL":11,"POSITION":34,"TEXCOORD_0":35,"TEXCOORD_1":35},"mode":4,"material":0,"indices":10}]},{"name":"model_tex_u1_v1_0","primitives":[{"attributes":{"NORMAL":13,"POSITION":36,"TEXCOORD_0":37,"TEXCOORD_1":37},"mode":4,"material":0,"indices":12}]},{"name":"model_tex_u1_v1_0","primitives":[{"attributes":{"NORMAL":15,"POSITION":38,"TEXCOORD_0":39,"TEXCOORD_1":39},"mode":4,"material":0,"indices":14}]},{"name":"model_tex_u1_v1_0","primitives":[{"attributes":{"NORMAL":17,"POSITION":40,"TEXCOORD_0":41,"TEXCOORD_1":41},"mode":4,"material":0,"indices":16}]},{"name":"model_tex_u1_v1_0","primitives":[{"attributes":{"NORMAL":19,"POSITION":42,"TEXCOORD_0":43,"TEXCOORD_1":43},"mode":4,"material":0,"indices":18}]},{"name":"model_tex_u1_v1_0","primitives":[{"attributes":{"NORMAL":21,"POSITION":44,"TEXCOORD_0":45,"TEXCOORD_1":45},"mode":4,"material":0,"indices":20}]},{"name":"model_tex_u1_v1_0","primitives":[{"attributes":{"NORMAL":23,"POSITION":46,"TEXCOORD_0":47,"TEXCOORD_1":47},"mode":4,"material":0,"indices":22}]}],"nodes":[{"name":"Sketchfab_model","rotation":[-0.7071067811865475,0,0,0.7071067811865476],"children":[1]},{"name":"model.fbx","rotation":[0.7071067811865475,0,0,0.7071067811865476],"children":[2]},{"name":"RootNode","children":[3]},{"name":"model","rotation":[-0.7071067811865475,0,0,0.7071067811865476],"children":[4,5,6,7,8,9,10,11,12,13,14,15]},{"name":"model_tex_u1_v1_0","translation":[0.07107118144631386,-0.022260189056396484,0.08017377555370331],"scale":[0.11258384585380554,0.11258384585380554,0.11258384585380554],"mesh":0},{"name":"model_tex_u1_v1_0","translation":[-0.021556787192821503,-0.022472798824310303,0.08374941349029541],"scale":[0.15143554657697678,0.15143554657697678,0.15143554657697678],"mesh":1},{"name":"model_tex_u1_v1_0","translation":[-0.05042940378189087,-0.10132457315921783,0.075637087225914],"scale":[0.22399365901947021,0.22399365901947021,0.22399365901947021],"mesh":2},{"name":"model_tex_u1_v1_0","translation":[0.044745683670043945,-0.17742732167243958,0.06111900508403778],"scale":[0.2294241487979889,0.2294241487979889,0.2294241487979889],"mesh":3},{"name":"model_tex_u1_v1_0","translation":[0.01074722409248352,0.03799106925725937,0.0630032867193222],"scale":[0.23800290375947952,0.23800290375947952,0.23800290375947952],"mesh":4},{"name":"model_tex_u1_v1_0","translation":[0.014736510813236237,0.16227340698242188,0.07099466025829315],"scale":[0.2595963403582573,0.2595963403582573,0.2595963403582573],"mesh":5},{"name":"model_tex_u1_v1_0","translation":[0.07543879747390747,0.13905876874923706,0.0739511102437973],"scale":[0.20003733038902283,0.20003733038902283,0.20003733038902283],"mesh":6},{"name":"model_tex_u1_v1_0","translation":[-0.0000314563512802124,0.0038686245679855347,0.05763272941112518],"scale":[0.2745659500360489,0.2745659500360489,0.2745659500360489],"mesh":7},{"name":"model_tex_u1_v1_0","translation":[-0.19278457388281822,-0.00004632771015167236,0.07109300792217255],"scale":[0.2758208364248276,0.2758208364248276,0.2758208364248276],"mesh":8},{"name":"model_tex_u1_v1_0","translation":[-1.4901161193847656e-8,-0.00010679662227630615,0.07022975385189056],"scale":[0.2756676822900772,0.2756676822900772,0.2756676822900772],"mesh":9},{"name":"model_tex_u1_v1_0","translation":[-0.00008718669414520264,0.03275096416473389,0.06764566898345947],"scale":[0.2745102196931839,0.2745102196931839,0.2745102196931839],"mesh":10},{"name":"model_tex_u1_v1_0","translation":[-0.06394124031066895,0.14112019538879395,0.07369644939899445],"scale":[0.21048182249069214,0.21048182249069214,0.21048182249069214],"mesh":11}],"scenes":[{"name":"Sketchfab_Scene","nodes":[0]}],"scene":0,"extensionsUsed":["EXT_meshopt_compression","KHR_materials_unlit","KHR_mesh_quantization"],"extensionsRequired":["EXT_meshopt_compression","KHR_mesh_quantization"]}