{
  "accessors": [
    {
      "bufferView": 2,
      "componentType": 5126,
      "count": 5467,
      "max": [
        186.94949340820313,
        162.1785888671875,
        67.54476928710938
      ],
      "min": [
        -219.58523559570313,
        -142.6524200439453,
        -67.5446548461914
      ],
      "type": "VEC3"
    },
    {
      "bufferView": 2,
      "byteOffset": 65604,
      "componentType": 5126,
      "count": 5467,
      "max": [
        0.999423623085022,
        0.9983978271484375,
        0.9997774362564087
      ],
      "min": [
        -0.9997291564941406,
        -0.9991370439529419,
        -0.9999344944953918
      ],
      "type": "VEC3"
    },
    {
      "bufferView": 1,
      "componentType": 5126,
      "count": 5467,
      "max": [
        0.6210899949073792,
        0.686959981918335
      ],
      "min": [
        0.008779999800026417,
        0.014159999787807465
      ],
      "type": "VEC2"
    },
    {
      "bufferView": 0,
      "componentType": 5125,
      "count": 28788,
      "type": "SCALAR"
    },
    {
      "bufferView": 2,
      "byteOffset": 131208,
      "componentType": 5126,
      "count": 17678,
      "max": [
        275.4700622558594,
        220.58499145507813,
        33.944549560546875
      ],
      "min": [
        -275.469970703125,
        -220.5851287841797,
        -33.944549560546875
      ],
      "type": "VEC3"
    },
    {
      "bufferView": 2,
      "byteOffset": 343344,
      "componentType": 5126,
      "count": 17678,
      "max": [
        0.9999552369117737,
        0.999836802482605,
        1.0
      ],
      "min": [
        -0.9999954700469971,
        -0.9999787211418152,
        -0.9999821782112122
      ],
      "type": "VEC3"
    },
    {
      "bufferView": 1,
      "byteOffset": 43736,
      "componentType": 5126,
      "count": 17678,
      "max": [
        14.607199668884277,
        8.854269981384277
      ],
      "min": [
        0.06335999816656113,
        0.06335999816656113
      ],
      "type": "VEC2"
    },
    {
      "bufferView": 0,
      "byteOffset": 115152,
      "componentType": 5125,
      "count": 95238,
      "type": "SCALAR"
    }
  ],
  "asset": {
    "extras": {
      "author": "Stephengury (https://sketchfab.com/Stephengury)",
      "license": "CC-BY-4.0 (http://creativecommons.org/licenses/by/4.0/)",
      "source": "https://sketchfab.com/3d-models/cat-ddf80c6ba168449682c9de3939d8fd18",
      "title": "cat"
    },
    "generator": "Sketchfab-15.27.0",
    "version": "2.0"
  },
  "bufferViews": [
    {
      "buffer": 0,
      "byteLength": 496104,
      "name": "floatBufferViews",
      "target": 34963
    },
    {
      "buffer": 0,
      "byteLength": 185160,
      "byteOffset": 496104,
      "byteStride": 8,
      "name": "floatBufferViews",
      "target": 34962
    },
    {
      "buffer": 0,
      "byteLength": 555480,
      "byteOffset": 681264,
      "byteStride": 12,
      "name": "floatBufferViews",
      "target": 34962
    }
  ],
  "buffers": [
    {
      "byteLength": 1236744,
      "uri": "scene.bin"
    }
  ],
  "extensionsRequired": [
    "KHR_materials_pbrSpecularGlossiness"
  ],
  "extensionsUsed": [
    "KHR_materials_pbrSpecularGlossiness"
  ],
  "images": [
    {
      "uri": "textures/material_diffuse.jpeg"
    },
    {
      "uri": "textures/cushion_diffuse.jpeg"
    },
    {
      "uri": "textures/cushion_specularGlossiness.png"
    }
  ],
  "materials": [
    {
      "doubleSided": true,
      "extensions": {
        "KHR_materials_pbrSpecularGlossiness": {
          "diffuseFactor": [
            0.7448275862068966,
            0.7448275862068966,
            0.7448275862068966,
            1.0
          ],
          "diffuseTexture": {
            "index": 0
          },
          "glossinessFactor": 0.4,
          "specularFactor": [
            0.0,
            0.0,
            0.0
          ]
        }
      },
      "name": "material"
    },
    {
      "doubleSided": true,
      "extensions": {
        "KHR_materials_pbrSpecularGlossiness": {
          "diffuseFactor": [
            0.8,
            0.8,
            0.8,
            1.0
          ],
          "diffuseTexture": {
            "index": 1
          },
          "glossinessFactor": 1.0,
          "specularFactor": [
            0.03371647509578544,
            0.03371647509578544,
            0.03371647509578544
          ],
          "specularGlossinessTexture": {
            "index": 2
          }
        }
      },
      "name": "cushion"
    }
  ],
  "meshes": [
    {
      "name": "cat0_cat_0",
      "primitives": [
        {
          "attributes": {
            "NORMAL": 1,
            "POSITION": 0,
            "TEXCOORD_0": 2
          },
          "indices": 3,
          "material": 0,
          "mode": 4
        }
      ]
    },
    {
      "name": "cushion_cushion_0",
      "primitives": [
        {
          "attributes": {
            "NORMAL": 5,
            "POSITION": 4,
            "TEXCOORD_0": 6
          },
          "indices": 7,
          "material": 1,
          "mode": 4
        }
      ]
    }
  ],
  "nodes": [
    {
      "children": [
        1
      ],
      "matrix": [
        1.0,
        0.0,
        0.0,
        0.0,
        0.0,
        2.220446049250313e-16,
        -1.0,
        0.0,
        0.0,
        1.0,
        2.220446049250313e-16,
        0.0,
        0.0,
        0.0,
        0.0,
        1.0
      ],
      "name": "Sketchfab_model"
    },
    {
      "children": [
        2
      ],
      "matrix": [
        0.0010000000474974513,
        0.0,
        0.0,
        0.0,
        0.0,
        0.0,
        0.0010000000474974513,
        0.0,
        0.0,
        -0.0010000000474974513,
        0.0,
        0.0,
        0.0,
        0.0,
        0.0,
        1.0
      ],
      "name": "cat.FBX"
    },
    {
      "children": [
        3
      ],
      "name": "RootNode"
    },
    {
      "children": [
        4,
        7
      ],
      "matrix": [
        0.9993287065841282,
        -6.938897212629679e-18,
        0.03664819056157015,
        0.0,
        0.03664819056157015,
        3.3306706620622457e-16,
        -0.9993287065841283,
        0.0,
        -6.938893903907228e-18,
        1.0,
        3.3306690738754696e-16,
        0.0,
        58.966796875,
        87.29867553710938,
        -41.13787841796875,
        1.0
      ],
      "name": "cat"
    },
    {
      "children": [
        5
      ],
      "matrix": [
        1.0,
        -3.725290520506519e-09,
        -7.703719777548943e-34,
        0.0,
        3.725290520506519e-09,
        1.0,
        0.0,
        0.0,
        7.703719777548943e-34,
        -2.869859425994167e-42,
        1.0,
        0.0,
        -4.9591064453125e-05,
        1.52587890625e-05,
        -87.4855728149414,
        1.0
      ],
      "name": "cat0"
    },
    {
      "children": [
        6
      ],
      "matrix": [
        1.0,
        0.0,
        -0.0,
        0.0,
        0.0,
        1.0,
        0.0,
        0.0,
        0.0,
        0.0,
        1.0,
        0.0,
        2.6826171875,
        2.02618408203125,
        107.42636108398438,
        1.0
      ],
      "name": "Object_5"
    },
    {
      "mesh": 0,
      "name": "cat0_cat_0"
    },
    {
      "children": [
        8
      ],
      "matrix": [
        1.0,
        -3.725290520506519e-09,
        -7.703719777548943e-34,
        0.0,
        3.725290520506519e-09,
        1.0,
        0.0,
        0.0,
        7.703719777548943e-34,
        -2.869859425994167e-42,
        1.0,
        0.0,
        -4.9591064453125e-05,
        1.52587890625e-05,
        -87.4855728149414,
        1.0
      ],
      "name": "cushion"
    },
    {
      "children": [
        9
      ],
      "matrix": [
        1.0,
        0.0,
        -0.0,
        0.0,
        0.0,
        1.0,
        0.0,
        0.0,
        0.0,
        0.0,
        1.0,
        0.0,
        0.0,
        6.103515625e-05,
        33.944549560546875,
        1.0
      ],
      "name": "Object_8"
    },
    {
      "mesh": 1,
      "name": "cushion_cushion_0"
    }
  ],
  "samplers": [
    {
      "magFilter": 9729,
      "minFilter": 9987,
      "wrapS": 10497,
      "wrapT": 10497
    }
  ],
  "scene": 0,
  "scenes": [
    {
      "name": "Sketchfab_Scene",
      "nodes": [
        0
      ]
    }
  ],
  "textures": [
    {
      "sampler": 0,
      "source": 0
    },
    {
      "sampler": 0,
      "source": 1
    },
    {
      "sampler": 0,
      "source": 2
    }
  ]
}
